TexturaLibera-Expanded.sfdir
StartChar: numbersign
Encoding: 35 35 3
Width: 840
Flags: MW
LayerCount: 4
Fore
SplineSet
300 -150 m 25
 780 700 l 1049
60 -150 m 25
 540 700 l 1049
60 200 m 25
 780 200 l 1049
60 400 m 25
 780 400 l 1049
EndSplineSet
EndChar
StartChar: ampersand
Encoding: 38 38 6
Width: 600
Flags: MW
LayerCount: 4
Fore
SplineSet
240 350 m 25
 480 350 l 1049
540 120 m 1
 420 0 l 1
 360 60 l 1
 360 550 l 9
 240 600 l 1
 120 480 l 17
 120 400 l 1
 240 350 l 1
 120 230 l 25
 119 50 l 25
 240 0 l 25
 360 120 l 1041
EndSplineSet
EndChar
StartChar: asterisk
Encoding: 42 42 10
Width: 600
Flags: MW
LayerCount: 4
Fore
SplineSet
120 350 m 25
 480 500 l 1049
300 600 m 25
 300 250 l 1049
120 500 m 25
 480 350 l 1049
EndSplineSet
EndChar
StartChar: plus
Encoding: 43 43 11
Width: 720
Flags: MW
LayerCount: 4
Fore
SplineSet
360 500 m 25
 360 100 l 1049
120 300 m 25
 600 300 l 1049
EndSplineSet
EndChar
StartChar: hyphen
Encoding: 45 45 13
Width: 360
Flags: MW
LayerCount: 4
Fore
SplineSet
120 200 m 25
 240 225 l 1049
EndSplineSet
EndChar
StartChar: period
Encoding: 46 46 14
Width: 360
Flags: MW
LayerCount: 4
Fore
SplineSet
155 50 m 25
 205 0 l 1049
EndSplineSet
EndChar
StartChar: one
Encoding: 49 49 17
Width: 480
Flags: MW
LayerCount: 4
Fore
SplineSet
165 50 m 25
 265 0 l 1
 315 50 l 1049
265 350 m 25
 215 400 l 25
 165 350 l 1049
240 375 m 9
 240 25 l 1025
EndSplineSet
Substitution2: "Subscript forms-1" one.inferior
Substitution2: "Superscript forms-1" one.superior
EndChar
StartChar: two
Encoding: 50 50 18
Width: 480
Flags: MW
LayerCount: 4
Fore
SplineSet
120 350 m 1
 180 400 l 1
 240 400 l 1
 360 350 l 1
 360 275 l 1
 120 75 l 25
 120 0 l 1
 120 0 196 50 300 50 c 3
 342 50 390 0 391 0 c 1025
EndSplineSet
Substitution2: "Subscript forms-1" two.inferior
Substitution2: "Superscript forms-1" two.superior
EndChar
StartChar: four
Encoding: 52 52 20
Width: 480
Flags: MW
LayerCount: 4
Fore
SplineSet
305 -100 m 25
 355 -150 l 1049
330 -125 m 1
 330 400 l 1
 330 400 307 375 288 375 c 27
 267 375 240 400 240 400 c 1
 120 200 l 1
 120 0 l 1
 120 0 137 25 240 25 c 3
 403 25 479 0 480 0 c 1025
EndSplineSet
Substitution2: "Subscript forms-1" four.inferior
Substitution2: "Superscript forms-1" four.superior
EndChar
StartChar: five
Encoding: 53 53 21
Width: 480
Flags: MW
LayerCount: 4
Fore
SplineSet
360 400 m 17
 360 400 304 350 270 350 c 0
 217 350 120 400 120 400 c 1
 120 125 l 1
 240 175 l 1
 360 55 l 1
 360 -80 l 17
 240 -200 l 1
 240 -200 190 -150 150 -150 c 24
 110 -150 60 -200 60 -200 c 1025
EndSplineSet
Substitution2: "Subscript forms-1" five.inferior
Substitution2: "Superscript forms-1" five.superior
EndChar
StartChar: six
Encoding: 54 54 22
Width: 480
Flags: MW
LayerCount: 4
Fore
SplineSet
120 280 m 25
 240 400 l 25
 360 280 l 25
 360 120 l 25
 240 0 l 25
 120 120 l 1
 120 510 l 1
 210 600 l 25
 187 610 256 575 300 575 c 3
 334 575 375 610 361 600 c 1049
EndSplineSet
Substitution2: "Subscript forms-1" six.inferior
Substitution2: "Superscript forms-1" six.superior
EndChar
StartChar: eight
Encoding: 56 56 24
Width: 480
Flags: MW
LayerCount: 4
Fore
SplineSet
240 600 m 25
 120 480 l 25
 120 385 l 25
 240 325 l 25
 360 445 l 25
 360 480 l 25
 240 600 l 25
240 325 m 25
 120 205 l 25
 120 120 l 25
 240 0 l 25
 360 120 l 25
 360 265 l 25
 240 325 l 25
EndSplineSet
Substitution2: "Subscript forms-1" eight.inferior
Substitution2: "Superscript forms-1" eight.superior
EndChar
StartChar: nine
Encoding: 57 57 25
Width: 480
Flags: MW
LayerCount: 4
Fore
SplineSet
360 120 m 1
 240 0 l 1
 120 120 l 25
 120 280 l 25
 240 400 l 25
 360 280 l 1
 360 -140 l 9
 300 -200 l 17
 300 -200 231 -150 180 -150 c 27
 140 -150 90 -200 90 -200 c 1025
EndSplineSet
Substitution2: "Subscript forms-1" nine.inferior
Substitution2: "Superscript forms-1" nine.superior
EndChar
StartChar: less
Encoding: 60 60 28
Width: 720
Flags: MW
LayerCount: 4
Fore
SplineSet
600 500 m 25
 120 300 l 25
 600 100 l 1049
EndSplineSet
EndChar
StartChar: equal
Encoding: 61 61 29
Width: 720
Flags: MW
LayerCount: 4
Fore
SplineSet
120 200 m 25
 600 200 l 1049
120 400 m 25
 600 400 l 1049
EndSplineSet
EndChar
StartChar: greater
Encoding: 62 62 30
Width: 720
Flags: MW
LayerCount: 4
Fore
SplineSet
120 500 m 25
 600 300 l 25
 120 100 l 1049
EndSplineSet
EndChar
StartChar: D
Encoding: 68 68 36
Width: 840
Flags: MW
AnchorPoint: "blwmark" 420 0 basechar 0
AnchorPoint: "abvmark" 480 700 basechar 0
LayerCount: 4
Fore
SplineSet
60 550 m 1
 60 550 101 600 149 600 c 3
 192 600 214 575 240 575 c 3
 274 575 300 600 301 600 c 1025
390 150 m 1
 390 540 l 1
 450 600 l 1
 720 475 l 1
 720 121.200195312 l 1
 600 0 l 17
 600 0 419 50 180 50 c 3
 97 50 60 0 60 0 c 1033
EndSplineSet
Layer: 2
SplineSet
240 550 m 5
 240 75 l 1029
EndSplineSet
EndChar
StartChar: M
Encoding: 77 77 45
Width: 1080
Flags: MW
AnchorPoint: "blwmark" 540 0 basechar 0
AnchorPoint: "abvmark" 600 700 basechar 0
LayerCount: 4
Fore
SplineSet
970 50 m 29
 920 0 l 21
 870 50 l 5
 870 450 l 1
 720 600 l 1
 600 480 l 1025
60 550 m 1
 60 550 101 600 149 600 c 3
 192 600 214 575 240 575 c 3
 274 575 300 600 301 600 c 1025
700 50 m 25
 650 0 l 17
 600 50 l 1
 600 450 l 1
 450 600 l 1
 390 540 l 1
 390 60 l 1
 330 0 l 1
 330 0 298 50 180 50 c 3
 97 50 60 0 60 0 c 1033
EndSplineSet
Layer: 2
SplineSet
240 550 m 5
 240 75 l 1029
EndSplineSet
EndChar
StartChar: P
Encoding: 80 80 48
Width: 840
Flags: MW
AnchorPoint: "blwmark" 480 0 basechar 0
AnchorPoint: "abvmark" 480 700 basechar 0
LayerCount: 4
Fore
SplineSet
300 250 m 17
 300 250 369 300 420 300 c 27
 511 300 600 250 600 250 c 1
 720 370 l 1
 720 475 l 1
 450 600 l 1
 390 540 l 1
 390 60 l 1
 330 0 l 1
 330 0 298 50 180 50 c 3
 97 50 60 0 60 0 c 1033
60 550 m 1
 60 550 101 600 149 600 c 3
 192 600 214 575 240 575 c 3
 274 575 300 600 301 600 c 1025
EndSplineSet
Layer: 2
SplineSet
240 550 m 5
 240 75 l 1029
EndSplineSet
EndChar
StartChar: bracketright
Encoding: 93 93 61
Width: 360
Flags: MW
LayerCount: 4
Fore
SplineSet
60 700 m 25
 240 700 l 25
 240 -150 l 25
 60 -150 l 1033
EndSplineSet
EndChar
StartChar: underscore
Encoding: 95 95 63
Width: 840
Flags: MW
LayerCount: 4
Fore
SplineSet
120 -150 m 25
 720 -150 l 1049
EndSplineSet
EndChar
StartChar: grave
Encoding: 96 96 64
Width: 480
Flags: MW
LayerCount: 4
Fore
SplineSet
150 700 m 17
 150 600 330 550 330 550 c 1049
EndSplineSet
EndChar
StartChar: a
Encoding: 97 97 65
Width: 480
Flags: MW
AnchorPoint: "blwmark" 240 0 basechar 0
AnchorPoint: "abvmark" 270 500 basechar 0
LayerCount: 4
Fore
SplineSet
150 220 m 17
 120 310 l 1
 210 400 l 1
 360 375 l 1
 360 30 l 1
 390 0 l 1
 450 60 l 1049
360 150 m 25
 210 0 l 1
 120 90 l 1
 120 160 l 1
 210 250 l 1
 210 250 232.928594192 225 300 225 c 3
 360 225 l 1033
EndSplineSet
Substitution2: "Stylistic alternates-1" ascript
EndChar
StartChar: f
Encoding: 102 102 70
Width: 360
Flags: MW
AnchorPoint: "abvmark" 210 700 basechar 0
LayerCount: 4
Fore
SplineSet
-150 -200 m 17
 -150 -200 -106 -150 -60 -150 c 8
 -35 -150 33 -200 60 -200 c 24
 86 -200 150 -150 150 -150 c 1
 150 530 l 1
 270 650 l 17
 270 650 300 590 360 590 c 24
 388 590 450 650 451 650 c 1033
60 400 m 25
 300 400 l 1049
EndSplineSet
EndChar
StartChar: j
Encoding: 106 106 74
Width: 240
Flags: MW
LayerCount: 4
Fore
SplineSet
120 660 m 25
 180 600 l 25
 120 540 l 1049
145 350 m 25
 95 400 l 25
 45 350 l 1049
120 375 m 1
 120 -90 l 9
 60 -150 l 1049
EndSplineSet
Substitution2: "Dotless forms-1" dotlessj
EndChar
StartChar: k
Encoding: 107 107 75
Width: 480
Flags: MW
AnchorPoint: "blwmark" 240 0 basechar 0
AnchorPoint: "abvmark" 240 700 basechar 0
LayerCount: 4
Fore
SplineSet
335 425 m 25
 385 375 l 1049
95 625 m 25
 145 575 l 1049
95 625 m 25
 145 575 l 1049
120 200 m 1
 360 350 l 9
 360 400 l 1049
240 275 m 1
 360 200 l 1
 360 25 l 1029
335 50 m 29
 385 0 l 1053
95 50 m 25
 145 0 l 1049
95 625 m 25
 145 575 l 1049
120 600 m 9
 120 25 l 1049
EndSplineSet
EndChar
StartChar: l
Encoding: 108 108 76
Width: 240
Flags: MW
AnchorPoint: "blwmark" 120 0 basechar 0
AnchorPoint: "abvmark" 120 700 basechar 0
LayerCount: 4
Fore
SplineSet
95 50 m 25
 145 0 l 25
 195 50 l 1049
95 625 m 25
 145 575 l 1049
120 600 m 9
 120 25 l 1049
EndSplineSet
EndChar
StartChar: n
Encoding: 110 110 78
Width: 480
Flags: MW
AnchorPoint: "blwmark" 240 0 basechar 0
AnchorPoint: "abvmark" 240 500 basechar 0
LayerCount: 4
Fore
SplineSet
335 50 m 25
 385 0 l 1049
360 25 m 1
 360 310 l 25
 270 400 l 1
 120 250 l 1049
95 50 m 25
 145 0 l 1049
145 350 m 25
 95 400 l 1049
120 375 m 9
 120 25 l 1025
EndSplineSet
Substitution2: "Stylistic alternates-1" n.alt
EndChar
StartChar: o
Encoding: 111 111 79
Width: 480
Flags: MW
AnchorPoint: "blwmark" 240 0 basechar 0
AnchorPoint: "abvmark" 240 500 basechar 0
LayerCount: 4
Fore
SplineSet
240 400 m 25
 120 280 l 25
 120 120 l 25
 240 0 l 25
 360 120 l 25
 360 280 l 25
 240 400 l 25
EndSplineSet
EndChar
StartChar: q
Encoding: 113 113 81
Width: 480
Flags: MW
AnchorPoint: "abvmark" 270 500 basechar 0
LayerCount: 4
Fore
SplineSet
360 120 m 9
 240 0 l 25
 120 120 l 25
 120 280 l 25
 240 400 l 1
 240 400 264 352 300 352 c 24
 336 352 360 400 360 400 c 9
 360 -150 l 1049
EndSplineSet
EndChar
StartChar: r
Encoding: 114 114 82
Width: 360
Flags: MW
AnchorPoint: "blwmark" 180 0 basechar 0
AnchorPoint: "abvmark" 180 500 basechar 0
LayerCount: 4
Fore
SplineSet
300 340 m 25
 240 400 l 25
 120 280 l 1049
95 50 m 25
 145 0 l 1049
95 400 m 25
 145 350 l 1049
120 375 m 9
 120 25 l 1025
EndSplineSet
EndChar
StartChar: t
Encoding: 116 116 84
Width: 390
Flags: MW
AnchorPoint: "blwmark" 210 0 basechar 0
AnchorPoint: "abvmark" 180 650 basechar 0
LayerCount: 4
Fore
SplineSet
60 400 m 25
 300 400 l 1049
150 550 m 1
 150 60 l 1
 210 0 l 1
 330 120 l 1025
EndSplineSet
EndChar
StartChar: x
Encoding: 120 120 88
Width: 480
Flags: MW
AnchorPoint: "blwmark" 240 0 basechar 0
AnchorPoint: "abvmark" 240 500 basechar 0
LayerCount: 4
Fore
SplineSet
90 175 m 25
 90 175 146 225 180 225 c 24
 233 225 247 175 300 175 c 24
 334 175 390 225 391 225 c 1049
240 280 m 9
 360 400 l 25
 420 340 l 1049
240 120 m 9
 360 0 l 1
 420 60 l 1049
60 340 m 25
 120 400 l 25
 240 280 l 25
 240 120 l 25
 120 0 l 25
 60 60 l 1049
EndSplineSet
EndChar
StartChar: bar
Encoding: 124 124 92
Width: 300
Flags: MW
LayerCount: 4
Fore
SplineSet
150 -150 m 25
 150 700 l 1049
EndSplineSet
EndChar
StartChar: braceright
Encoding: 125 125 93
Width: 360
Flags: MW
LayerCount: 4
Fore
SplineSet
60 700 m 25
 180 650 l 1
 180 350 l 25
 300 300 l 25
 180 180 l 25
 180 -30 l 1
 60 -150 l 1049
EndSplineSet
EndChar
StartChar: cent
Encoding: 162 162 202
Width: 540
Flags: MW
LayerCount: 4
Fore
SplineSet
300 600 m 25
 300 -150 l 1049
480 280 m 9
 300 400 l 25
 120 220 l 25
 120 100 l 25
 300 0 l 25
 480 100 l 1041
EndSplineSet
EndChar
StartChar: currency
Encoding: 164 164 207
Width: 600
Flags: MW
LayerCount: 4
Fore
SplineSet
540 0 m 25
 420 125 l 1049
60 0 m 25
 180 125 l 1049
540 600 m 25
 420 475 l 1049
60 600 m 25
 180 475 l 1049
270 500 m 25
 120 350 l 25
 120 220 l 25
 330 100 l 25
 480 250 l 25
 480 380 l 25
 270 500 l 25
EndSplineSet
EndChar
StartChar: section
Encoding: 167 167 206
Width: 600
Flags: MW
LayerCount: 4
Fore
SplineSet
240 400 m 25
 120 280 l 25
 120 160 l 25
 480 50 l 25
 480 -80 l 25
 360 -200 l 17
 360 -200 264 -140 196 -140 c 27
 138 -140 60 -200 60 -200 c 1033
540 700 m 17
 540 700 473 640 420 640 c 27
 345 640 240 700 240 700 c 9
 120 580 l 25
 120 450 l 25
 480 340 l 25
 480 220 l 25
 360 100 l 1049
EndSplineSet
EndChar
StartChar: dieresis
Encoding: 168 168 101
Width: 480
Flags: MW
LayerCount: 4
Fore
SplineSet
335 600 m 25
 385 550 l 1049
95 600 m 25
 145 550 l 1049
EndSplineSet
EndChar
StartChar: copyright
Encoding: 169 169 221
Width: 840
Flags: MW
LayerCount: 4
Fore
SplineSet
454.799804688 410 m 1
 454.799804688 190 l 1025
372 465 m 1
 372 465 256.799804688 399 256.799804688 300 c 3
 256.799804688 208 320.400390625 135 439.200195312 135 c 3
 517.200195312 135 603.599609375 218 604.799804688 218 c 1025
372 406 m 1
 372 406 434.400390625 465 474 465 c 3
 516 465 499.200195312 438 537.599609375 438 c 3
 568.799804688 438 585.599609375 465 586.799804688 465 c 1025
60 350 m 0
 60 475 210 600 360 600 c 0
 660 600 780 500 780 250 c 0
 780 125 630 0 480 0 c 0
 180 0 60 100 60 350 c 0
EndSplineSet
Layer: 2
SplineSet
372 438 m 1
 372 190 l 1025
EndSplineSet
Colour: ff00
EndChar
StartChar: ordfeminine
Encoding: 170 170 210
Width: 480
Flags: MW
LayerCount: 4
Fore
SplineSet
60 200 m 25
 420 200 l 1049
150 520 m 17
 120 610 l 1
 210 700 l 1
 360 675 l 1
 360 330 l 1
 390 300 l 1
 450 360 l 1049
360 450 m 25
 210 300 l 1
 120 390 l 1
 120 460 l 1
 210 550 l 1
 210 550 232.927734376 525 300 525 c 3
 360 525 l 1033
EndSplineSet
EndChar
StartChar: logicalnot
Encoding: 172 172 225
Width: 720
Flags: MW
LayerCount: 4
Fore
SplineSet
120 400 m 25
 600 400 l 25
 600 200 l 1049
EndSplineSet
EndChar
StartChar: registered
Encoding: 174 174 222
Width: 840
Flags: MW
LayerCount: 4
Fore
SplineSet
232 438 m 1
 232 438 255 465 281 465 c 3
 305 465 317 451 331 451 c 3
 349 451 364 465 365 465 c 1025
496 314 m 1
 595 396 l 1
 446 465 l 1
 414 438 l 1
 414 162 l 1
 380 135 l 1
 380 135 363 162 298 162 c 3
 252 162 232 135 232 135 c 1033
530 340 m 1
 562 314 l 1
 562 162 l 1
 595 135 l 9
 628 162 l 1049
60 350 m 0
 60 475 210 600 360 600 c 0
 660 600 780 500 780 250 c 0
 780 125 630 0 480 0 c 0
 180 0 60 100 60 350 c 0
EndSplineSet
Layer: 2
SplineSet
331 438 m 1
 331 176 l 1025
EndSplineSet
Colour: ff00
EndChar
StartChar: macron
Encoding: 175 175 227
Width: 480
Flags: MW
LayerCount: 4
Fore
SplineSet
90 550 m 1
 390 550 l 1049
EndSplineSet
EndChar
StartChar: acute
Encoding: 180 180 99
Width: 480
Flags: MW
LayerCount: 4
Fore
SplineSet
330 700 m 17
 330 600 180 525 180 525 c 1049
EndSplineSet
EndChar
StartChar: periodcentered
Encoding: 183 183 212
Width: 360
Flags: MW
LayerCount: 4
Fore
SplineSet
155 360 m 25
 205 310 l 1049
EndSplineSet
EndChar
StartChar: cedilla
Encoding: 184 184 102
Width: 480
Flags: MW
LayerCount: 4
Fore
SplineSet
240 0 m 25
 210 -25 l 1
 360 -50 l 1
 240 -200 l 1
 240 -200 209 -175 150 -175 c 3
 78 -175 60 -200 60 -200 c 1025
EndSplineSet
EndChar
StartChar: ordmasculine
Encoding: 186 186 211
Width: 480
Flags: MW
LayerCount: 4
Fore
SplineSet
240 700 m 25
 120 580 l 25
 120 420 l 25
 240 300 l 25
 360 420 l 25
 360 580 l 25
 240 700 l 25
60 200 m 25
 420 200 l 1049
EndSplineSet
EndChar
StartChar: guillemotright
Encoding: 187 187 216
Width: 660
Flags: MW
LayerCount: 4
Fore
SplineSet
390 325 m 17
 390 325 416.080078124 295.744140624 450 275 c 0
 564 207 600 200 600 200 c 1
 600 200 523 174 420 100 c 0
 394.849609376 81.732421875 360 50 360 50 c 1033
90 325 m 17
 90 325 116.080078125 295.744140624 150 275 c 0
 264 207 300 200 300 200 c 1
 300 200 223 174 120 100 c 0
 94.849609375 81.732421875 60 50 60 50 c 1033
EndSplineSet
EndChar
StartChar: multiply
Encoding: 215 215 223
Width: 720
Flags: MW
LayerCount: 4
Fore
SplineSet
600 500 m 25
 120 100 l 1049
120 500 m 25
 600 100 l 1049
EndSplineSet
EndChar
StartChar: Oslash
Encoding: 216 216 182
Width: 960
Flags: MW
AnchorPoint: "abvmark" 540 700 basechar 0
LayerCount: 4
Fore
SplineSet
840 600 m 25
 120 0 l 1049
512 550 m 1
 510 100 l 1025
360 600 m 1
 360 600 150 480 150 300 c 3
 150 134 264 0 480 0 c 3
 623 0 784 142 784 300 c 3
 784 512 673 600 540 600 c 3
 436 600 360 492 360 492 c 1025
EndSplineSet
Layer: 2
SplineSet
360 550 m 5
 360 100 l 1029
EndSplineSet
EndChar
StartChar: Thorn
Encoding: 222 222 178
Width: 840
Flags: MW
AnchorPoint: "abvmark" 480 700 basechar 0
LayerCount: 4
Fore
SplineSet
300 50 m 17
 300 50 369 100 420 100 c 27
 511 100 600 50 600 50 c 1
 720 170 l 1
 720 275 l 1
 450 400 l 1
 390 340 l 1025
60 550 m 1
 60 550 101 600 149 600 c 3
 192 600 214 575 240 575 c 3
 274 575 300 600 301 600 c 1025
450 600 m 1
 390 540 l 1
 390 -50 l 1
 240 -200 l 1
 240 -200 208 -150 90 -150 c 3
 7 -150 -30 -200 -28 -200 c 1033
EndSplineSet
Layer: 2
SplineSet
240 550 m 5
 240 -125 l 1029
EndSplineSet
EndChar
StartChar: divide
Encoding: 247 247 224
Width: 720
Flags: MW
LayerCount: 4
Fore
SplineSet
330 135 m 25
 390 75 l 1049
120 300 m 25
 600 300 l 1049
330 525 m 25
 390 465 l 1049
EndSplineSet
EndChar
StartChar: oslash
Encoding: 248 248 183
Width: 480
Flags: MW
AnchorPoint: "blwmark" 240 0 basechar 0
AnchorPoint: "abvmark" 240 500 basechar 0
LayerCount: 4
Fore
SplineSet
420 400 m 25
 60 0 l 1049
240 400 m 25
 120 280 l 25
 120 120 l 25
 240 0 l 25
 360 120 l 25
 360 280 l 25
 240 400 l 25
EndSplineSet
EndChar
StartChar: dcroat
Encoding: 273 273 319
Width: 480
Flags: MW
AnchorPoint: "blwmark" 240 0 basechar 0
AnchorPoint: "abvmark" 300 700 basechar 0
LayerCount: 4
Fore
SplineSet
450 465 m 1
 60 75 l 1025
360 280 m 1
 240 400 l 25
 120 280 l 1
 120 120 l 25
 240 0 l 25
 360 120 l 1
 360 450 l 10
 360 510 293 550 240 550 c 0
 187 550 120 549 120 600 c 27
 120 633 180 670 169 650 c 1049
EndSplineSet
EndChar
StartChar: hbar
Encoding: 295 295 964
Width: 480
Flags: MW
AnchorPoint: "abvmark" 240 700 basechar 0
AnchorPoint: "blwmark" 240 0 basechar 0
LayerCount: 4
Fore
SplineSet
335 50 m 25
 385 0 l 1049
95 50 m 25
 145 0 l 1049
95 625 m 25
 145 575 l 1049
120 600 m 9
 120 25 l 1049
360 25 m 25
 360 310 l 25
 270 400 l 1
 120 250 l 1049
240 475 m 25
 30 475 l 1049
EndSplineSet
EndChar
StartChar: dotlessi
Encoding: 305 305 97
Width: 240
Flags: MW
AnchorPoint: "blwmark" 120 0 basechar 0
AnchorPoint: "abvmark" 120 500 basechar 0
LayerCount: 4
Fore
SplineSet
95 50 m 25
 145 0 l 25
 195 50 l 1049
145 350 m 25
 95 400 l 25
 45 350 l 1049
120 375 m 9
 120 25 l 1025
EndSplineSet
EndChar
StartChar: Lslash
Encoding: 321 321 288
Width: 840
Flags: MW
AnchorPoint: "abvmark" 480 700 basechar 0
AnchorPoint: "blwmark" 420 0 basechar 0
LayerCount: 4
Fore
SplineSet
60 550 m 1
 60 550 101 600 149 600 c 3
 192 600 214 575 240 575 c 3
 274 575 300 600 301 600 c 1025
390 150 m 1
 390 540 l 1
 450 600 l 1025
720 300 m 1
 720 300 660 253.200195312 660 210 c 3
 660 136.799804688 720 121.200195312 720 121.200195312 c 1
 600 0 l 17
 600 0 419 50 180 50 c 3
 97 50 60 0 60 0 c 1033
540 500 m 25
 120 200 l 1049
EndSplineSet
Layer: 2
SplineSet
240 550 m 5
 240 75 l 1029
EndSplineSet
EndChar
StartChar: florin
Encoding: 402 402 260
Width: 480
Flags: MW
LayerCount: 4
Fore
SplineSet
-150 -200 m 17
 -150 -200 -106 -150 -60 -150 c 8
 -9 -150 9 -200 60 -200 c 24
 100 -200 150 -150 150 -150 c 1
 270 530 l 1
 390 650 l 17
 390 650 438 590 480 590 c 24
 522 590 570 650 571 650 c 1033
120 400 m 25
 420 400 l 1049
EndSplineSet
EndChar
StartChar: hv
Encoding: 405 405 514
Width: 720
Flags: MW
AnchorPoint: "blwmark" 360 0 basechar 0
AnchorPoint: "abvmark" 360 700 basechar 0
LayerCount: 4
Fore
SplineSet
606 550 m 17
 604 550 540 521 540 472 c 16
 540 423 600 370 600 370 c 9
 600 120 l 1
 480 0 l 25
 360 120 l 1
 360 310 l 25
 270 400 l 1
 120 250 l 1049
95 50 m 25
 145 0 l 1049
95 625 m 25
 145 575 l 1049
120 600 m 9
 120 25 l 1049
EndSplineSet
EndChar
StartChar: Wynn
Encoding: 503 503 970
Width: 840
Flags: W
AnchorPoint: "abvmark" 480 700 basechar 0
LayerCount: 4
Fore
SplineSet
300 0 m 1
 720 420 l 1
 720 475 l 1
 450 600 l 1
 390 540 l 1
 390 -140 l 1
 330 -200 l 1
 330 -200 298 -150 180 -150 c 3
 97 -150 60 -200 60 -200 c 1033
60 550 m 1
 60 550 101 600 149 600 c 3
 192 600 214 575 240 575 c 3
 274 575 300 600 301 600 c 1025
EndSplineSet
Layer: 2
SplineSet
240 550 m 1
 240 -125 l 1029
EndSplineSet
EndChar
StartChar: Rsmallcap
Encoding: 640 640 854
Width: 540
Flags: MW
AnchorPoint: "blwmark" 270 0 basechar 0
AnchorPoint: "abvmark" 240 500 basechar 0
LayerCount: 4
Fore
SplineSet
95 50 m 25
 145 0 l 1049
95 400 m 25
 145 350 l 1049
120 375 m 9
 120 25 l 1025
480 60 m 25
 420 0 l 1
 420 0 399 85 360 125 c 24
 337 149 270 150 270 150 c 1025
240 120 m 1
 420 300 l 1
 240 400 l 1
 120 280 l 1049
EndSplineSet
EndChar
StartChar: caron
Encoding: 711 711 245
Width: 480
Flags: MW
LayerCount: 4
Fore
SplineSet
120 700 m 25
 120 700 240 625 240 525 c 1
 240 675 360 700 360 700 c 1025
EndSplineSet
EndChar
StartChar: verticallinemod
Encoding: 712 712 887
Width: 480
Flags: MW
LayerCount: 4
Fore
SplineSet
240 700 m 9
 240 525 l 1025
EndSplineSet
EndChar
StartChar: ring
Encoding: 730 730 184
Width: 480
Flags: MW
LayerCount: 4
Fore
SplineSet
120 650 m 0
 120 710 138 725 210 725 c 0
 300 725 360 675 360 600 c 0
 360 540 342 525 270 525 c 0
 180 525 120 575 120 650 c 0
EndSplineSet
EndChar
StartChar: tilde
Encoding: 732 732 168
Width: 480
Flags: MW
LayerCount: 4
Fore
SplineSet
60 525 m 17
 60 525 108 575 150 575 c 27
 221 575 259 550 330 550 c 27
 372 550 420 600 420 600 c 1033
EndSplineSet
EndChar
StartChar: breveinvertedbelowcmb
Encoding: 815 815 537
Width: 0
VWidth: 400
Flags: MW
AnchorPoint: "blwmark" -240 0 mark 0
LayerCount: 4
Fore
SplineSet
-90 -200 m 17
 -90 -200 -107.5546875 -125 -240 -125 c 3
 -294 -125 -360 -200 -360 -200 c 1033
EndSplineSet
EndChar
StartChar: tridotright
Encoding: 4347 4347 895
Width: 600
Flags: MW
LayerCount: 4
Fore
SplineSet
460 200 m 25
 510 150 l 1049
155 350 m 25
 205 300 l 1049
155 50 m 25
 205 0 l 1049
EndSplineSet
EndChar
StartChar: endash
Encoding: 8211 8211 257
Width: 480
Flags: MW
LayerCount: 4
Fore
SplineSet
60 200 m 25
 420 200 l 1049
EndSplineSet
EndChar
StartChar: quoteright
Encoding: 8217 8217 255
Width: 360
Flags: MW
LayerCount: 4
Fore
SplineSet
160 600 m 25
 210 550 l 1
 210 500 l 25
 135 425 l 1049
EndSplineSet
EndChar
StartChar: quotedblleft
Encoding: 8220 8220 251
Width: 600
Flags: MW
LayerCount: 4
Fore
SplineSet
200 425 m 25
 150 475 l 1
 150 525 l 25
 225 600 l 1049
440 425 m 25
 390 475 l 1
 390 525 l 25
 465 600 l 1049
EndSplineSet
EndChar
StartChar: quotedblright
Encoding: 8221 8221 252
Width: 600
Flags: MW
LayerCount: 4
Fore
SplineSet
400 600 m 25
 450 550 l 1
 450 500 l 25
 375 425 l 1049
160 600 m 25
 210 550 l 1
 210 500 l 25
 135 425 l 1049
EndSplineSet
EndChar
StartChar: quotedblbase
Encoding: 8222 8222 253
Width: 600
VWidth: 450
Flags: MW
LayerCount: 4
Fore
SplineSet
400 50 m 25
 450 0 l 1
 450 -50 l 25
 375 -125 l 1049
160 50 m 25
 210 0 l 1
 210 -50 l 25
 135 -125 l 1049
EndSplineSet
EndChar
StartChar: quotedblrev
Encoding: 8223 8223 929
Width: 600
Flags: MW
LayerCount: 4
Layer: 3
SplineSet
200 600 m 25
 150 550 l 1
 150 500 l 25
 225 425 l 1049
440 600 m 25
 390 550 l 1
 390 500 l 25
 465 425 l 1049
EndSplineSet
EndChar
StartChar: bullet
Encoding: 8226 8226 259
Width: 360
Flags: MW
LayerCount: 4
Fore
SplineSet
155 345 m 25
 235 265 l 25
 205 235 l 25
 125 315 l 25
 155 345 l 25
EndSplineSet
EndChar
StartChar: perthousand
Encoding: 8240 8240 244
Width: 1260
Flags: MW
LayerCount: 4
Fore
SplineSet
1020 200 m 25
 900 80 l 25
 900 -30 l 25
 1020 -150 l 25
 1140 -30 l 25
 1140 80 l 25
 1020 200 l 25
600 200 m 25
 480 80 l 25
 480 -30 l 25
 600 -150 l 25
 720 -30 l 25
 720 80 l 25
 600 200 l 25
60 -150 m 25
 780 700 l 1049
240 700 m 25
 120 580 l 25
 120 470 l 25
 240 350 l 25
 360 470 l 25
 360 580 l 25
 240 700 l 25
EndSplineSet
EndChar
StartChar: minute
Encoding: 8242 8242 926
Width: 360
Flags: MW
LayerCount: 4
Fore
SplineSet
240 700 m 17
 240 600 120 525 120 525 c 1041
EndSplineSet
EndChar
StartChar: guilsinglright
Encoding: 8250 8250 243
Width: 360
Flags: MW
LayerCount: 4
Fore
SplineSet
90 325 m 17
 90 325 116.080078125 295.744140624 150 275 c 0
 264 207 300 200 300 200 c 1
 300 200 223 174 120 100 c 0
 94.849609375 81.732421875 60 50 60 50 c 1033
EndSplineSet
EndChar
StartChar: fraction
Encoding: 8260 8260 217
Width: 840
Flags: MW
LayerCount: 4
Fore
SplineSet
120 0 m 25
 720 700 l 1049
EndSplineSet
EndChar
StartChar: bracketquillright
Encoding: 8262 8262 917
Width: 360
Flags: MW
LayerCount: 4
Fore
SplineSet
60 300 m 25
 240 300 l 1049
60 700 m 25
 240 700 l 25
 240 -150 l 25
 60 -150 l 1033
EndSplineSet
EndChar
StartChar: et
Encoding: 8266 8266 960
Width: 480
Flags: MW
LayerCount: 4
Fore
SplineSet
90 400 m 1
 90 400 164 350 270 350 c 3
 335 350 420 400 420 400 c 1
 420 400 180 176 180 -100 c 3
 180 -150 l 1025
EndSplineSet
EndChar
StartChar: paragraphrev
Encoding: 8267 8267 951
Width: 840
Flags: MW
LayerCount: 4
Fore
SplineSet
60 550 m 1
 60 550 99 600 149 600 c 3
 192 600 214 575 240 575 c 3
 274 575 300 600 301 600 c 1025
480 -200 m 1
 480 -200 328 -150 210 -150 c 3
 127 -150 90 -200 90 -200 c 1025
451 150 m 17
 451 150 462.861328124 100 541 100 c 3
 643 100 691 177.791015624 691 350 c 3
 691 469 684 600 602 600 c 3
 559 600 537 575 511 575 c 3
 477 575 451 600 450 600 c 1
 390 540 l 1
 390 -75 l 1025
EndSplineSet
Layer: 2
SplineSet
240 550 m 5
 240 -125 l 1029
EndSplineSet
EndChar
StartChar: lozengedot
Encoding: 8280 8280 899
Width: 720
Flags: MW
LayerCount: 4
Fore
SplineSet
520 200 m 25
 570 150 l 1049
335 50 m 25
 385 0 l 1049
335 350 m 25
 385 300 l 1049
150 200 m 25
 200 150 l 1049
EndSplineSet
EndChar
StartChar: minus
Encoding: 8722 8722 214
Width: 720
Flags: MW
LayerCount: 4
Fore
SplineSet
120 300 m 25
 600 300 l 1049
EndSplineSet
EndChar
StartChar: logicaland
Encoding: 8743 8743 952
Width: 720
Flags: MW
LayerCount: 4
Fore
SplineSet
120 0 m 25
 360 400 l 25
 600 0 l 1049
EndSplineSet
EndChar
StartChar: because
Encoding: 8757 8757 897
Width: 720
Flags: MW
LayerCount: 4
Fore
SplineSet
515 350 m 25
 565 300 l 1049
155 350 m 25
 205 300 l 1049
335 50 m 25
 385 0 l 1049
EndSplineSet
EndChar
StartChar: bracketangleleft
Encoding: 9296 9296 930
Width: 480
Flags: MW
LayerCount: 4
Fore
SplineSet
390 675 m 17
 390 675 293.433426836 553.835692694 270 525 c 0
 216 459 60 250 60 250 c 1
 60 250 245 60 300 0 c 0
 319.832255214 -22.129028541 420 -150 420 -150 c 1033
EndSplineSet
EndChar
StartChar: FleuronCenter
Encoding: 10086 10086 955
Width: 840
Flags: MW
LayerCount: 4
Fore
SplineSet
660 100 m 1
 660 100 619.068359375 54.203125 540 25 c 1025
480 700 m 1
 480 700 540 644 540 600 c 27
 540 521 420 425 420 425 c 1025
60 575 m 25
 90 600 l 25
 750 575 l 25
 780 600 l 1049
540 25 m 1
 507.991210938 13.177734375 457.692382812 0 420 0 c 0
 274.799804688 0 90 141 90 300 c 27
 90 376 148.799804688 450 240 450 c 27
 314.400390625 450 360 325 360 325 c 1
 360 325 405.599609375 450 480 450 c 27
 546 450 600 399 600 350 c 3
 600 277.390625 523.564453125 243.852539062 450 200 c 8
 398.400390625 169 390 128 390 75 c 19
 390 47.4765625 446.400390625 25 540 25 c 1
EndSplineSet
Colour: ffff00
EndChar
StartChar: bracketwhiteleft
Encoding: 10214 10214 918
Width: 480
Flags: MW
LayerCount: 4
Fore
SplineSet
420 700 m 25
 120 700 l 25
 120 -150 l 25
 420 -150 l 1033
EndSplineSet
Layer: 2
SplineSet
270 650 m 25
 270 -100 l 1049
EndSplineSet
EndChar
StartChar: luslst
Encoding: 11788 11788 902
Width: 360
Flags: MW
LayerCount: 4
Fore
SplineSet
60 700 m 25
 300 450 l 1049
EndSplineSet
EndChar
StartChar: ramus
Encoding: 11801 11801 911
Width: 720
Flags: MW
LayerCount: 4
Fore
SplineSet
432 662 m 1
 432 662 432 625 432 600 c 27
 432 551 474 475 474 475 c 1
 474 475 582 516 642 550 c 24
 666 564 686 588 686 588 c 1025
90 350 m 1
 90 350 90 274 90 225 c 27
 90 127 185 -25 185 -25 c 1
 185 -25 391 57 510 125 c 24
 558 153 600 200 600 200 c 1025
263 506 m 1
 263 506 263 449 263 412 c 27
 263 339 330 225 330 225 c 1
 330 225 488 287 577 338 c 24
 613 359 646 394 646 394 c 1025
120 -150 m 25
 600 700 l 1049
EndSplineSet
EndChar
StartChar: brackettopleft
Encoding: 11810 11810 922
Width: 360
Flags: MW
LayerCount: 4
Fore
SplineSet
300 700 m 25
 120 700 l 17
 120 300 l 1025
EndSplineSet
EndChar
StartChar: brackettopright
Encoding: 11811 11811 923
Width: 360
Flags: MW
LayerCount: 4
Fore
SplineSet
60 700 m 25
 240 700 l 17
 240 300 l 1025
EndSplineSet
EndChar
StartChar: bracketbottomright
Encoding: 11813 11813 925
Width: 360
Flags: MW
LayerCount: 4
Fore
SplineSet
240 300 m 1
 240 -150 l 9
 60 -150 l 1033
EndSplineSet
EndChar
StartChar: Ubracketleft
Encoding: 11814 11814 912
Width: 600
Flags: MW
LayerCount: 4
Fore
SplineSet
540 400 m 1
 360 400 l 26
 228 400 120 310 120 200 c 27
 120 90 228 0 360 0 c 26
 540 0 l 1025
EndSplineSet
EndChar
StartChar: Ubracketright
Encoding: 11815 11815 913
Width: 600
Flags: MW
LayerCount: 4
Fore
SplineSet
60 400 m 1
 240 400 l 26
 372 400 480 310 480 200 c 27
 480 90 372 0 240 0 c 26
 60 0 l 1025
EndSplineSet
EndChar
StartChar: fivedots
Encoding: 11821 11821 935
Width: 720
Flags: MW
LayerCount: 4
Fore
SplineSet
335 200 m 25
 385 150 l 1049
550 200 m 25
 600 150 l 1049
335 25 m 25
 385 -25 l 1049
335 375 m 25
 385 325 l 1049
120 200 m 25
 170 150 l 1049
EndSplineSet
EndChar
StartChar: a_a
Encoding: 42803 42803 336
Width: 720
Flags: MW
AnchorPoint: "abvmark" 360 500 basechar 0
AnchorPoint: "blwmark" 360 0 basechar 0
LayerCount: 4
Fore
SplineSet
360 310 m 1
 450 400 l 1
 600 375 l 1
 600 30 l 1
 630 0 l 1
 690 60 l 1049
600 150 m 25
 450 0 l 1
 360 90 l 1
 360 160 l 1
 450 250 l 1
 450 250 472.927734376 225 540 225 c 3
 600 225 l 1033
150 220 m 17
 120 310 l 1
 210 400 l 1
 360 375 l 1
 360 150 l 9
 210 0 l 1
 120 90 l 1
 120 160 l 1
 210 250 l 1
 210 250 232.928594192 225 300 225 c 3
 360 225 l 1033
EndSplineSet
LCarets2: 1 360 
Ligature2: "Historic ligatures-1" a a
EndChar
StartChar: a_o
Encoding: 42805 42805 341
Width: 720
Flags: MW
AnchorPoint: "blwmark" 360 0 basechar 0
AnchorPoint: "abvmark" 360 500 basechar 0
LayerCount: 4
Fore
SplineSet
150 220 m 17
 120 310 l 1
 210 400 l 1
 360 375 l 1
 360 150 l 9
 210 0 l 1
 120 90 l 1
 120 160 l 1
 210 250 l 1
 210 250 232.928594192 225 300 225 c 3
 360 225 l 1033
480 400 m 25
 360 280 l 25
 360 120 l 25
 480 0 l 25
 600 120 l 25
 600 280 l 25
 480 400 l 25
EndSplineSet
LCarets2: 1 360 
Ligature2: "Historic ligatures-1" a o
EndChar
StartChar: a_v
Encoding: 42809 42809 345
Width: 720
Flags: MW
AnchorPoint: "blwmark" 360 0 basechar 0
AnchorPoint: "abvmark" 360 500 basechar 0
LayerCount: 4
Fore
SplineSet
360 150 m 9
 210 0 l 1
 120 90 l 1
 120 160 l 1
 210 250 l 1
 210 250 232.928594192 225 300 225 c 3
 360 225 l 1033
606 550 m 17
 604 550 540 521 540 472 c 16
 540 423 600 375 600 375 c 9
 600 120 l 1
 480 0 l 25
 360 120 l 1
 360 375 l 17
 210 405 l 1
 120 315 l 1
 150 225 l 1033
EndSplineSet
LCarets2: 1 360 
Ligature2: "Historic ligatures-1" a v
EndChar
StartChar: avslash
Encoding: 42811 42811 861
Width: 720
Flags: MW
AnchorPoint: "abvmark" 360 500 basechar 0
AnchorPoint: "blwmark" 360 0 basechar 0
LayerCount: 4
Fore
SplineSet
360 250 m 25
 660 250 l 1049
360 150 m 9
 210 0 l 1
 120 90 l 1
 120 160 l 1
 210 250 l 1
 210 250 232.928594192 225 300 225 c 3
 360 225 l 1033
606 550 m 17
 604 550 540 521 540 472 c 16
 540 423 600 370 600 370 c 9
 600 120 l 1
 480 0 l 25
 360 120 l 1
 360 375 l 17
 210 400 l 1
 120 310 l 1
 150 220 l 1033
EndSplineSet
EndChar
StartChar: kbar
Encoding: 42817 42817 862
Width: 480
Flags: MW
AnchorPoint: "abvmark" 240 700 basechar 0
AnchorPoint: "blwmark" 240 0 basechar 0
LayerCount: 4
Fore
SplineSet
240 475 m 25
 30 475 l 1049
335 425 m 25
 385 375 l 1049
95 625 m 25
 145 575 l 1049
95 625 m 25
 145 575 l 1049
120 200 m 1
 360 350 l 9
 360 400 l 1049
240 275 m 1
 360 200 l 1
 360 25 l 1029
335 50 m 29
 385 0 l 1053
95 50 m 25
 145 0 l 1049
95 625 m 25
 145 575 l 1049
120 600 m 9
 120 25 l 1049
EndSplineSet
EndChar
StartChar: kslash
Encoding: 42819 42819 863
Width: 480
Flags: MW
AnchorPoint: "abvmark" 240 700 basechar 0
AnchorPoint: "blwmark" 240 0 basechar 0
LayerCount: 4
Fore
SplineSet
450 280 m 25
 270 100 l 1049
335 425 m 25
 385 375 l 1049
95 625 m 25
 145 575 l 1049
95 625 m 25
 145 575 l 1049
120 200 m 1
 360 350 l 9
 360 400 l 1049
240 275 m 1
 360 200 l 1
 360 25 l 1025
335 50 m 25
 385 0 l 1049
95 50 m 25
 145 0 l 1049
95 625 m 25
 145 575 l 1049
120 600 m 9
 120 25 l 1049
EndSplineSet
EndChar
StartChar: lbroken
Encoding: 42823 42823 574
Width: 420
Flags: MW
LayerCount: 4
Fore
SplineSet
275 50 m 25
 325 0 l 25
 375 50 l 1049
95 625 m 25
 145 575 l 1049
120 600 m 1
 120 220 l 1
 300 400 l 1
 300 25 l 1025
EndSplineSet
EndChar
StartChar: obiit
Encoding: 42827 42827 866
Width: 480
Flags: MW
LayerCount: 4
Fore
SplineSet
30 225 m 25
 450 225 l 1049
240 400 m 25
 120 280 l 25
 120 120 l 25
 240 0 l 25
 360 120 l 25
 360 280 l 25
 240 400 l 25
EndSplineSet
EndChar
StartChar: rumrotunda
Encoding: 42845 42845 705
Width: 600
Flags: MW
LayerCount: 4
Fore
SplineSet
360 225 m 1
 420 200 l 1
 420 200 420 139 420 100 c 27
 420 3 240 -150 240 -150 c 1025
540 50 m 17
 540 50 517 0 450 0 c 3
 337 0 300 60 300 60 c 9
 240 0 l 1
 120 180 l 25
 240 300 l 1
 120 400 l 1
 60 340 l 1049
EndSplineSet
EndChar
StartChar: vslash
Encoding: 42847 42847 873
Width: 480
Flags: MW
LayerCount: 4
Fore
SplineSet
145 350 m 25
 95 400 l 1049
120 375 m 25
 120 120 l 1
 240 0 l 25
 360 120 l 1
 360 370 l 17
 360 370 300 423 300 472 c 8
 300 512 364 550 366 550 c 1033
270 390 m 25
 30 150 l 1049
EndSplineSet
EndChar
StartChar: zvisigoth
Encoding: 42851 42851 839
Width: 420
Flags: MW
AnchorPoint: "abvmark" 240 500 basechar 0
LayerCount: 4
Fore
SplineSet
360 280 m 9
 240 400 l 25
 120 280 l 1
 120 200 l 25
 240 150 l 25
 120 30 l 1
 300 0 l 1
 300 -150 l 1
 300 -150 244 -200 210 -200 c 0
 172 -200 141 -150 90 -150 c 16
 44 -150 0 -200 0 -200 c 1025
EndSplineSet
EndChar
StartChar: thornbar
Encoding: 42853 42853 874
Width: 480
Flags: MW
AnchorPoint: "abvmark" 240 700 basechar 0
LayerCount: 4
Fore
SplineSet
60 0 m 1
 60 0 115 60 150 60 c 0
 185 60 240 0 240 0 c 9
 360 120 l 1
 360 280 l 25
 240 400 l 1
 120 280 l 1049
95 625 m 25
 145 575 l 1049
120 600 m 1
 120 -150 l 1025
240 475 m 25
 30 475 l 1049
EndSplineSet
EndChar
StartChar: thornbarbelow
Encoding: 42855 42855 875
Width: 480
Flags: MW
AnchorPoint: "abvmark" 240 700 basechar 0
LayerCount: 4
Fore
SplineSet
240 -75 m 25
 30 -75 l 1049
120 280 m 25
 240 400 l 1
 360 280 l 1
 360 60 l 1
 300 0 l 1
 300 0 247 100 150 100 c 0
 115 100 60 50 60 50 c 1025
95 625 m 25
 145 575 l 1049
120 600 m 1
 120 -150 l 1025
EndSplineSet
EndChar
StartChar: etfin
Encoding: 42859 42859 959
Width: 420
Flags: MW
LayerCount: 4
Fore
SplineSet
60 310 m 25
 150 400 l 1
 300 300 l 1
 120 120 l 1
 300 100 l 1
 300 40 l 1
 0 -200 l 1025
EndSplineSet
EndChar
StartChar: con
Encoding: 42863 42863 890
Width: 480
Flags: MW
LayerCount: 4
Fore
SplineSet
300 -150 m 25
 360 -90 l 1
 360 280 l 9
 240 400 l 1
 120 280 l 25
 120 120 l 25
 240 0 l 1049
EndSplineSet
EndChar
StartChar: dum
Encoding: 42865 42865 448
Width: 720
Flags: MW
AnchorPoint: "abvmark" 300 700 basechar 0
LayerCount: 4
Fore
SplineSet
480 225 m 1
 540 200 l 1
 540 200 540 139 540 100 c 27
 540 3 360 -150 360 -150 c 1025
360 280 m 1
 240 400 l 25
 120 280 l 1
 120 120 l 25
 240 0 l 17
 360 120 l 1025
169 650 m 25
 150 630 120 627 120 600 c 27
 120 549 187 550 240 550 c 0
 293 550 360 511 360 450 c 18
 360 0 l 9
 410 50 l 17
 410 50 457 0 570 0 c 3
 637 0 660 50 660 50 c 1033
EndSplineSet
EndChar
StartChar: mum
Encoding: 42867 42867 587
Width: 990
Flags: MW
LayerCount: 4
Fore
SplineSet
600 25 m 1
 600 310 l 25
 510 400 l 1
 360 250 l 1041
335 50 m 9
 385 0 l 1041
360 25 m 1
 360 310 l 25
 270 400 l 1
 120 250 l 1041
95 50 m 9
 145 0 l 1041
145 350 m 9
 95 400 l 1041
120 375 m 9
 120 25 l 1025
750 225 m 1
 810 200 l 1
 810 200 810 139 810 100 c 27
 810 3 630 -150 630 -150 c 1025
930 50 m 17
 930 50 907 0 840 0 c 3
 727 0 675 50 675 50 c 9
 625 0 l 25
 575 50 l 1025
EndSplineSet
EndChar
StartChar: Rumsmallcap
Encoding: 42870 42870 858
Width: 780
Flags: MW
LayerCount: 4
Fore
SplineSet
540 225 m 1
 600 200 l 1
 600 200 600 139 600 100 c 27
 600 3 420 -150 420 -150 c 1025
720 50 m 17
 720 50 697 0 630 0 c 3
 517 0 470 50 470 50 c 9
 420 0 l 1
 420 0 398 87 360 125 c 24
 334 151 270 150 270 150 c 1025
95 50 m 25
 145 0 l 1049
95 400 m 25
 145 350 l 1049
120 375 m 9
 120 25 l 1025
240 120 m 1
 420 300 l 1
 240 400 l 1
 120 280 l 1049
EndSplineSet
EndChar
StartChar: um
Encoding: 42872 42872 958
Width: 480
Flags: MW
LayerCount: 4
Fore
SplineSet
120 -150 m 1
 120 -150 120 -58 120 0 c 3
 120 141 420 400 420 400 c 1
 420 400 364 340 330 340 c 0
 277 340 240 400 240 400 c 9
 120 280 l 1
 120 240 l 1
 360 160 l 1
 360 120 l 1
 240 0 l 17
 240 0 180 60 150 60 c 24
 120 60 60 0 60 0 c 1025
EndSplineSet
EndChar
StartChar: thorn_longs
Encoding: 59188 59188 884
Width: 480
Flags: MW
LayerCount: 4
Fore
SplineSet
-150 -200 m 17
 -150 -200 -106 -150 -60 -150 c 8
 -35 -150 33 -200 60 -200 c 24
 86 -200 150 -150 150 -150 c 1
 150 530 l 1
 270 650 l 17
 270 650 300 590 360 590 c 24
 388 590 450 650 451 650 c 1033
60 0 m 1
 60 0 115 60 150 60 c 0
 185 60 240 0 240 0 c 9
 360 120 l 1
 360 280 l 25
 240 400 l 1
 120 280 l 1049
EndSplineSet
LCarets2: 1 240 
Ligature2: "Historic ligatures-1" thorn longs
EndChar
StartChar: kbar_longs
Encoding: 59336 59336 962
Width: 510
Flags: MW
LayerCount: 4
Fore
SplineSet
-150 -200 m 17
 -150 -200 -106 -150 -60 -150 c 8
 -35 -150 33 -200 60 -200 c 24
 86 -200 150 -150 150 -150 c 1
 150 530 l 1
 270 650 l 17
 270 650 300 590 360 590 c 24
 388 590 450 650 451 650 c 1033
365 50 m 25
 415 0 l 1049
270 275 m 1
 390 200 l 1
 390 25 l 1025
150 200 m 1
 390 350 l 9
 390 400 l 1049
365 425 m 25
 415 375 l 1049
240 475 m 25
 30 475 l 1049
EndSplineSet
LCarets2: 1 270 
Ligature2: "Historic ligatures-1" kbar longs
EndChar
StartChar: g_r
Encoding: 60112 60112 502
Width: 600
Flags: MW
LayerCount: 4
Fore
SplineSet
540 340 m 25
 480 400 l 25
 360 280 l 1049
60 -200 m 17
 60 -200 104 -150 150 -150 c 8
 175 -150 243 -200 270 -200 c 24
 296 -200 360 -150 360 -150 c 9
 360 400 l 1
 360 400 336 352 300 352 c 24
 264 352 240 400 240 400 c 1
 120 280 l 25
 120 120 l 25
 240 0 l 25
 360 120 l 1041
EndSplineSet
LCarets2: 1 360 
Ligature2: "Historic ligatures-1" g r
EndChar
StartChar: g_p
Encoding: 60114 60114 501
Width: 720
Flags: MW
LayerCount: 4
Fore
SplineSet
300 0 m 1
 300 0 355 60 390 60 c 0
 425 60 480 0 480 0 c 9
 600 120 l 1
 600 280 l 25
 480 400 l 1
 360 280 l 1049
60 -200 m 17
 60 -200 104 -150 150 -150 c 8
 201 -150 219 -200 270 -200 c 24
 310 -200 360 -150 360 -150 c 9
 360 400 l 1
 360 400 330 352 300 352 c 24
 270 352 240 400 240 400 c 1
 120 280 l 25
 120 120 l 25
 210 0 l 1
 360 150 l 1049
360 -150 m 9
 420 -200 l 1025
EndSplineSet
LCarets2: 1 360 
Ligature2: "Historic ligatures-1" g p
EndChar
StartChar: longs_h
Encoding: 60321 60321 707
Width: 780
Flags: MW
LayerCount: 4
Fore
SplineSet
635 50 m 25
 685 0 l 1049
395 50 m 25
 445 0 l 1049
660 25 m 25
 660 310 l 25
 570 400 l 1
 420 250 l 1049
-150 -200 m 17
 -150 -200 -106 -150 -60 -150 c 8
 -9 -150 9 -200 60 -200 c 24
 100 -200 150 -150 150 -150 c 1
 150 530 l 1
 270 650 l 1
 270 650 304 600 420 600 c 9
 420 25 l 1025
EndSplineSet
LCarets2: 1 360 
Ligature2: "Ligatures-1" longs h
EndChar
StartChar: longs_t_r
Encoding: 60330 60330 713
Width: 840
Flags: MW
LayerCount: 4
Fore
SplineSet
780 340 m 25
 720 400 l 25
 600 280 l 1049
575 50 m 25
 625 0 l 1049
600 375 m 9
 600 25 l 1025
-150 -200 m 1
 -150 -200 -106 -150 -60 -150 c 8
 -35 -150 33 -200 60 -200 c 24
 86 -200 150 -150 150 -150 c 1
 150 530 l 1
 270 650 l 1
 270 650 337 550 390 550 c 1
 390 60 l 1
 450 0 l 1
 570 120 l 1025
300 400 m 1
 575 400 l 25
 625 350 l 1025
EndSplineSet
LCarets2: 2 360 600 
Ligature2: "Ligatures-1" longs t r
EndChar
StartChar: b_b
Encoding: 61122 61122 349
Width: 720
GlyphClass: 3
Flags: MW
LayerCount: 4
Fore
SplineSet
335 625 m 25
 385 575 l 1049
360 600 m 9
 360 120 l 25
 480 0 l 25
 600 120 l 25
 600 280 l 25
 480 400 l 1
 360 280 l 1049
95 625 m 25
 145 575 l 1049
120 600 m 9
 120 120 l 25
 240 0 l 25
 360 120 l 25
 360 280 l 25
 240 400 l 1
 120 280 l 1049
EndSplineSet
LCarets2: 1 360 
Ligature2: "Historic ligatures-1" b b
EndChar
StartChar: c_k
Encoding: 61124 61124 439
Width: 780
Flags: MW
LayerCount: 4
Fore
SplineSet
360 280 m 9
 240 400 l 25
 120 280 l 25
 120 120 l 25
 240 0 l 25
 360 120 l 1041
635 425 m 25
 685 375 l 1049
395 625 m 25
 445 575 l 1049
395 625 m 25
 445 575 l 1049
420 200 m 1
 660 350 l 9
 660 400 l 1049
540 275 m 1
 660 200 l 1
 660 25 l 1025
635 50 m 25
 685 0 l 1049
395 50 m 25
 445 0 l 1049
395 625 m 25
 445 575 l 1049
420 600 m 9
 420 25 l 1049
EndSplineSet
LCarets2: 1 420 
Ligature2: "Ligatures-1" c k
EndChar
StartChar: e_y
Encoding: 61127 61127 351
Width: 720
GlyphClass: 3
Flags: MW
LayerCount: 4
Fore
SplineSet
360 120 m 9
 240 0 l 25
 120 80 l 25
 120 280 l 25
 240 400 l 25
 360 320 l 1
 360 320 l 1
 120 80 l 1025
625 350 m 25
 575 400 l 1049
300 -200 m 17
 300 -200 344 -150 390 -150 c 8
 441 -150 459 -200 510 -200 c 24
 550 -200 600 -150 600 -150 c 1
 600 375 l 1025
600 120 m 9
 480 0 l 25
 360 120 l 1
 360 320 l 1049
EndSplineSet
LCarets2: 1 360 
Ligature2: "Historic ligatures-1" e y
EndChar
StartChar: f_r
Encoding: 61130 61130 352
Width: 660
GlyphClass: 3
Flags: MW
LayerCount: 4
Fore
SplineSet
-150 -200 m 1
 -150 -200 -106 -150 -60 -150 c 8
 -35 -150 33 -200 60 -200 c 24
 86 -200 150 -150 150 -150 c 1
 150 530 l 1
 270 650 l 17
 270 650 300 590 360 590 c 24
 388 590 450 650 451 650 c 1025
60 400 m 1
 395 400 l 25
 445 350 l 1025
600 340 m 25
 540 400 l 25
 420 280 l 1049
395 50 m 25
 445 0 l 1049
420 375 m 9
 420 25 l 1025
EndSplineSet
LCarets2: 1 360 
Ligature2: "Ligatures-1" f r
EndChar
StartChar: f_t_y
Encoding: 61136 61136 356
Width: 1020
GlyphClass: 3
Flags: MW
LayerCount: 4
Fore
SplineSet
925 350 m 25
 875 400 l 1049
600 -200 m 17
 600 -200 644 -150 690 -150 c 8
 741 -150 759 -200 810 -200 c 24
 850 -200 900 -150 900 -150 c 1
 900 375 l 1025
900 120 m 9
 780 0 l 25
 660 120 l 1
 660 375 l 1049
-150 -200 m 1
 -150 -200 -106 -150 -60 -150 c 8
 -35 -150 33 -200 60 -200 c 24
 86 -200 150 -150 150 -150 c 1
 150 530 l 1
 270 650 l 1
 270 650 337 550 390 550 c 1
 390 60 l 1
 450 0 l 1
 570 120 l 1025
60 400 m 1
 635 400 l 25
 685 350 l 1025
EndSplineSet
LCarets2: 2 360 600 
Ligature2: "Ligatures-1" f t y
EndChar
StartChar: g_g
Encoding: 61137 61137 497
Width: 720
Flags: MW
LayerCount: 4
Fore
SplineSet
360 -150 m 8
 383 -130 472 -200 510 -200 c 0
 544 -200 600 -150 600 -150 c 9
 600 400 l 1
 600 400 576 352 540 352 c 24
 504 352 480 400 480 400 c 1
 360 280 l 25
 360 120 l 25
 480 0 l 25
 600 120 l 1041
60 -200 m 17
 60 -200 104 -150 150 -150 c 8
 175 -150 243 -200 270 -200 c 24
 296 -200 360 -150 360 -150 c 9
 360 400 l 1
 360 400 336 352 300 352 c 24
 264 352 240 400 240 400 c 1
 120 280 l 25
 120 120 l 25
 240 0 l 25
 360 120 l 1041
EndSplineSet
LCarets2: 1 360 
Ligature2: "Historic ligatures-1" g g
EndChar
StartChar: t_r
Encoding: 61144 61144 729
Width: 600
Flags: MW
LayerCount: 4
Fore
SplineSet
540 340 m 25
 480 400 l 25
 360 280 l 1049
335 50 m 25
 385 0 l 1049
360 375 m 9
 360 25 l 1025
150 550 m 1
 150 60 l 1
 210 0 l 1
 330 120 l 1025
60 400 m 1
 335 400 l 25
 385 350 l 1025
EndSplineSet
LCarets2: 1 360 
Ligature2: "Ligatures-1" t r
EndChar
StartChar: t_t
Encoding: 61145 61145 730
Width: 630
Flags: MW
LayerCount: 4
Fore
SplineSet
390 550 m 1
 390 60 l 1
 450 0 l 1
 570 120 l 1025
60 400 m 1
 540 400 l 1041
150 550 m 1
 150 60 l 1
 210 0 l 1
 330 120 l 1025
EndSplineSet
LCarets2: 1 360 
Ligature2: "Ligatures-1" t t
EndChar
StartChar: t_z
Encoding: 61148 61148 732
Width: 660
Flags: MW
LayerCount: 4
Fore
SplineSet
60 400 m 1
 60 400 91 350 300 350 c 0
 427 350 480 400 480 400 c 1
 540 340 l 1
 360 200 l 1
 540 100 l 1
 540 -150 l 1
 540 -150 484 -200 450 -200 c 0
 412 -200 381 -150 330 -150 c 16
 284 -150 240 -200 240 -200 c 1033
150 550 m 1
 150 60 l 1
 210 0 l 1
 330 120 l 1025
EndSplineSet
LCarets2: 1 360 
Ligature2: "Ligatures-1" t z
EndChar
StartChar: a_f
Encoding: 61347 61347 337
Width: 570
GlyphClass: 3
Flags: MW
LayerCount: 4
Fore
SplineSet
360 150 m 9
 210 0 l 1
 120 90 l 1
 120 160 l 1
 210 250 l 1
 210 250 232.928594192 225 300 225 c 3
 360 225 l 1033
60 -200 m 17
 60 -200 104 -150 150 -150 c 8
 175 -150 243 -200 270 -200 c 24
 296 -200 360 -150 360 -150 c 1
 360 530 l 1
 480 650 l 17
 480 650 510 590 570 590 c 24
 598 590 660 650 661 650 c 1033
510 400 m 1
 210 400 l 17
 120 310 l 1
 150 220 l 1033
EndSplineSet
LCarets2: 1 360 
Ligature2: "Historic ligatures-1" a f
EndChar
StartChar: a_g
Encoding: 61349 61349 338
Width: 720
GlyphClass: 3
Flags: MW
LayerCount: 4
Fore
SplineSet
150 220 m 17
 120 310 l 1
 210 400 l 1
 360 375 l 1
 360 150 l 9
 210 0 l 1
 120 90 l 1
 120 160 l 1
 210 250 l 1
 210 250 232.928594192 225 300 225 c 3
 360 225 l 1033
300 -200 m 17
 300 -200 344 -150 390 -150 c 8
 415 -150 483 -200 510 -200 c 24
 536 -200 600 -150 600 -150 c 9
 600 400 l 1
 600 400 576 352 540 352 c 24
 504 352 480 400 480 400 c 1
 360 280 l 25
 360 120 l 25
 480 0 l 25
 600 120 l 1041
EndSplineSet
LCarets2: 1 360 
Ligature2: "Historic ligatures-1" a g
EndChar
StartChar: a_n
Encoding: 61351 61351 340
Width: 720
GlyphClass: 3
Flags: MW
LayerCount: 4
Fore
SplineSet
150 220 m 17
 120 310 l 1
 210 400 l 1
 360 375 l 1
 360 150 l 9
 210 0 l 1
 120 90 l 1
 120 160 l 1
 210 250 l 1
 210 250 232.928594192 225 300 225 c 3
 360 225 l 1033
575 50 m 25
 625 0 l 1049
600 25 m 1
 600 310 l 25
 510 400 l 1
 360 250 l 1049
335 50 m 25
 385 0 l 1049
360 25 m 1
 360 375 l 1041
EndSplineSet
LCarets2: 1 360 
Ligature2: "Historic ligatures-1" a n
EndChar
StartChar: a_r
Encoding: 61354 61354 343
Width: 600
GlyphClass: 3
Flags: MW
LayerCount: 4
Fore
SplineSet
150 220 m 17
 120 310 l 1
 210 400 l 1
 360 375 l 1
 360 150 l 9
 210 0 l 1
 120 90 l 1
 120 160 l 1
 210 250 l 1
 210 250 232.928594192 225 300 225 c 3
 360 225 l 1033
450 60 m 25
 390 0 l 1
 360 30 l 1
 360 375 l 1025
540 340 m 25
 480 400 l 25
 360 280 l 1049
EndSplineSet
LCarets2: 1 360 
Ligature2: "Historic ligatures-1" a r
EndChar
StartChar: o_c
Encoding: 61357 61357 668
Width: 660
Flags: MW
LayerCount: 4
Fore
SplineSet
600 280 m 9
 480 400 l 25
 360 280 l 25
 360 120 l 25
 480 0 l 25
 600 120 l 1041
240 400 m 25
 120 280 l 25
 120 120 l 25
 240 0 l 25
 360 120 l 25
 360 280 l 25
 240 400 l 25
EndSplineSet
LCarets2: 1 360 
Ligature2: "Historic ligatures-1" o c
EndChar
StartChar: l_l
Encoding: 62713 62713 575
Width: 480
Flags: MW
LayerCount: 4
Fore
SplineSet
335 50 m 25
 385 0 l 25
 435 50 l 1049
335 625 m 25
 385 575 l 1049
360 600 m 9
 360 25 l 1049
95 50 m 25
 145 0 l 25
 195 50 l 1049
95 625 m 25
 145 575 l 1049
120 600 m 9
 120 25 l 1049
EndSplineSet
LCarets2: 1 240 
Ligature2: "Ligatures-1" l l
EndChar
StartChar: longs_c_h
Encoding: 62714 62714 706
Width: 1020
Flags: MW
LayerCount: 4
Fore
SplineSet
-150 -200 m 17
 -150 -200 -106 -150 -60 -150 c 8
 -35 -150 33 -200 60 -200 c 24
 86 -200 150 -150 150 -150 c 1
 150 530 l 1
 270 650 l 17
 270 650 300 590 360 590 c 24
 388 590 450 650 451 650 c 1033
600 280 m 9
 480 400 l 25
 360 280 l 25
 360 120 l 25
 480 0 l 25
 600 120 l 1041
875 50 m 25
 925 0 l 1049
635 50 m 25
 685 0 l 1049
635 625 m 25
 685 575 l 1049
660 600 m 9
 660 25 l 1049
900 25 m 25
 900 310 l 25
 810 400 l 1
 660 250 l 1049
EndSplineSet
LCarets2: 2 360 660 
Ligature2: "Ligatures-1" longs c h
EndChar
StartChar: longs_k
Encoding: 62716 62716 708
Width: 780
Flags: MW
LayerCount: 4
Fore
SplineSet
635 425 m 25
 685 375 l 1049
420 200 m 1
 660 350 l 9
 660 400 l 1049
540 275 m 1
 660 200 l 1
 660 25 l 1025
635 50 m 25
 685 0 l 1049
395 50 m 25
 445 0 l 1049
-150 -200 m 17
 -150 -200 -106 -150 -60 -150 c 8
 -9 -150 9 -200 60 -200 c 24
 100 -200 150 -150 150 -150 c 1
 150 530 l 1
 270 650 l 1
 270 650 319 600 420 600 c 9
 420 25 l 1025
EndSplineSet
LCarets2: 1 360 
Ligature2: "Ligatures-1" longs k
EndChar
StartChar: longs_s
Encoding: 62717 62717 710
Width: 720
Flags: MW
LayerCount: 4
Fore
SplineSet
-150 -200 m 17
 -150 -200 -106 -150 -60 -150 c 8
 -35 -150 33 -200 60 -200 c 24
 86 -200 150 -150 150 -150 c 1
 150 530 l 1
 270 650 l 17
 270 650 300 590 360 590 c 24
 388 590 450 650 451 650 c 1033
660 400 m 17
 660 400 598 340 570 340 c 24
 510 340 480 400 480 400 c 9
 360 280 l 1
 360 240 l 1
 600 160 l 1
 600 120 l 1
 480 0 l 17
 480 0 420 60 390 60 c 24
 360 60 300 0 300 0 c 1025
EndSplineSet
LCarets2: 1 360 
Ligature2: "Ligatures-1" longs s
EndChar
StartChar: f_f
Encoding: 64256 64256 320
Width: 600
Flags: MW
LayerCount: 4
Fore
SplineSet
150 -150 m 1
 187 -150 262 -200 300 -200 c 0
 334 -200 390 -150 390 -150 c 1
 390 530 l 1
 510 650 l 17
 510 650 540 590 600 590 c 24
 628 590 690 650 691 650 c 1033
-150 -200 m 17
 -150 -200 -106 -150 -60 -150 c 8
 -35 -150 33 -200 60 -200 c 24
 86 -200 150 -150 150 -150 c 1
 150 530 l 1
 270 650 l 1
 270 650 337 530 390 530 c 1025
60 400 m 25
 540 400 l 1049
EndSplineSet
LCarets2: 1 360 
Ligature2: "Ligatures-1" f f
EndChar
StartChar: f_i
Encoding: 64257 64257 321
Width: 540
Flags: MW
LayerCount: 4
Fore
SplineSet
420 375 m 9
 420 25 l 1025
395 50 m 25
 445 0 l 25
 495 50 l 1049
60 400 m 1
 395 400 l 25
 445 350 l 1025
-150 -200 m 1
 -150 -200 -106 -150 -60 -150 c 8
 -9 -150 9 -200 60 -200 c 24
 100 -200 150 -150 150 -150 c 1
 150 530 l 1
 270 650 l 1
 270 650 360 600 480 600 c 9
 430 550 l 1025
EndSplineSet
LCarets2: 1 360 
Ligature2: "Ligatures-1" f i
EndChar
StartChar: s_t
Encoding: 64262 64262 334
Width: 840
Flags: MW
LayerCount: 4
Fore
SplineSet
60 0 m 1
 60 0 108 60 150 60 c 24
 192 60 240 0 240 0 c 9
 360 120 l 1
 360 160 l 1
 120 240 l 1
 120 280 l 1
 240 400 l 17
 240 400 329.634476582 350 540 350 c 3
 709.255203672 350 750 400 750 400 c 1033
600 550 m 1
 600 50 l 1
 660 0 l 1
 780 100 l 1025
EndSplineSet
LCarets2: 1 480 
Ligature2: "Ligatures-1" s t
EndChar
StartChar: v.alt
Encoding: 65540 -1 782
Width: 480
Flags: MW
AnchorPoint: "abvmark" 240 500 basechar 0
AnchorPoint: "blwmark" 240 0 basechar 0
LayerCount: 4
Fore
SplineSet
310 400 m 1
 360 350 l 25
 360 120 l 1
 240 0 l 25
 120 120 l 1
 120 375 l 1049
145 350 m 25
 95 400 l 1049
EndSplineSet
EndChar
